<svg width="65" height="32" viewBox="0 0 65 32" fill="none" xmlns="http://www.w3.org/2000/svg">
<g filter="url(#filter0_b_869_70)">
<rect width="65" height="32" rx="8" fill="black" fill-opacity="0.65"/>
<path d="M17.1533 10.34L18.3267 12.6867C18.4867 13.0133 18.9133 13.3267 19.2733 13.3867L21.4 13.74C22.76 13.9667 23.08 14.9533 22.1 15.9267L20.4467 17.58C20.1667 17.86 20.0133 18.4 20.1 18.7867L20.5733 20.8333C20.9467 22.4533 20.0867 23.08 18.6533 22.2333L16.66 21.0533C16.3 20.84 15.7067 20.84 15.34 21.0533L13.3467 22.2333C11.92 23.08 11.0533 22.4467 11.4267 20.8333L11.9 18.7867C11.9867 18.4 11.8333 17.86 11.5533 17.58L9.9 15.9267C8.92667 14.9533 9.24 13.9667 10.6 13.74L12.7267 13.3867C13.08 13.3267 13.5067 13.0133 13.6667 12.6867L14.84 10.34C15.48 9.06667 16.52 9.06667 17.1533 10.34Z" stroke="#FFAD49" stroke-width="1.5" stroke-linecap="round" stroke-linejoin="round"/>
<path d="M28.96 13.344C29.0347 12.3627 29.4133 11.5947 30.096 11.04C30.7787 10.4853 31.664 10.208 32.752 10.208C33.4773 10.208 34.1013 10.3413 34.624 10.608C35.1573 10.864 35.5573 11.216 35.824 11.664C36.1013 12.112 36.24 12.6187 36.24 13.184C36.24 13.8453 36.048 14.416 35.664 14.896C35.2907 15.376 34.8 15.6853 34.192 15.824V15.904C34.8853 16.0747 35.4347 16.4107 35.84 16.912C36.2453 17.4133 36.448 18.0693 36.448 18.88C36.448 19.488 36.3093 20.0373 36.032 20.528C35.7547 21.008 35.3387 21.3867 34.784 21.664C34.2293 21.9413 33.5627 22.08 32.784 22.08C31.6533 22.08 30.7253 21.7867 30 21.2C29.2747 20.6027 28.8693 19.76 28.784 18.672H30.192C30.2667 19.312 30.528 19.8347 30.976 20.24C31.424 20.6453 32.0213 20.848 32.768 20.848C33.5147 20.848 34.08 20.656 34.464 20.272C34.8587 19.8773 35.056 19.3707 35.056 18.752C35.056 17.952 34.7893 17.376 34.256 17.024C33.7227 16.672 32.9173 16.496 31.84 16.496H31.472V15.28H31.856C32.8373 15.2693 33.5787 15.1093 34.08 14.8C34.5813 14.48 34.832 13.9893 34.832 13.328C34.832 12.7627 34.6453 12.3093 34.272 11.968C33.9093 11.6267 33.3867 11.456 32.704 11.456C32.0427 11.456 31.5093 11.6267 31.104 11.968C30.6987 12.3093 30.4587 12.768 30.384 13.344H28.96ZM38.2379 20.832C39.5925 19.744 40.6539 18.8533 41.4219 18.16C42.1899 17.456 42.8352 16.7253 43.3579 15.968C43.8912 15.2 44.1579 14.448 44.1579 13.712C44.1579 13.0187 43.9872 12.4747 43.6459 12.08C43.3152 11.6747 42.7765 11.472 42.0299 11.472C41.3045 11.472 40.7392 11.7013 40.3339 12.16C39.9392 12.608 39.7259 13.2107 39.6939 13.968H38.2859C38.3285 12.7733 38.6912 11.8507 39.3739 11.2C40.0565 10.5493 40.9365 10.224 42.0139 10.224C43.1125 10.224 43.9819 10.528 44.6219 11.136C45.2725 11.744 45.5979 12.5813 45.5979 13.648C45.5979 14.5333 45.3312 15.3973 44.7979 16.24C44.2752 17.072 43.6779 17.808 43.0059 18.448C42.3339 19.0773 41.4752 19.8133 40.4299 20.656H45.9339V21.872H38.2379V20.832ZM47.265 19.424V18.32L52.881 10.544H54.625V18.16H56.225V19.424H54.625V22H53.185V19.424H47.265ZM53.249 12.064L48.945 18.16H53.249V12.064Z" fill="#FFAD49"/>
</g>
<defs>
<filter id="filter0_b_869_70" x="-8" y="-8" width="81" height="48" filterUnits="userSpaceOnUse" color-interpolation-filters="sRGB">
<feFlood flood-opacity="0" result="BackgroundImageFix"/>
<feGaussianBlur in="BackgroundImageFix" stdDeviation="4"/>
<feComposite in2="SourceAlpha" operator="in" result="effect1_backgroundBlur_869_70"/>
<feBlend mode="normal" in="SourceGraphic" in2="effect1_backgroundBlur_869_70" result="shape"/>
</filter>
</defs>
</svg>
