<svg width="71" height="32" viewBox="0 0 71 32" fill="none" xmlns="http://www.w3.org/2000/svg">
<g filter="url(#filter0_b_1_947)">
<rect width="71" height="32" rx="8" fill="black" fill-opacity="0.65"/>
<path d="M17.1533 10.34L18.3267 12.6867C18.4867 13.0133 18.9133 13.3267 19.2733 13.3867L21.4 13.74C22.76 13.9667 23.08 14.9533 22.1 15.9267L20.4467 17.58C20.1667 17.86 20.0133 18.4 20.1 18.7867L20.5733 20.8333C20.9467 22.4533 20.0867 23.08 18.6533 22.2333L16.66 21.0533C16.3 20.84 15.7067 20.84 15.34 21.0533L13.3467 22.2333C11.92 23.08 11.0533 22.4467 11.4267 20.8333L11.9 18.7867C11.9867 18.4 11.8333 17.86 11.5533 17.58L9.9 15.9267C8.92667 14.9533 9.24 13.9667 10.6 13.74L12.7267 13.3867C13.08 13.3267 13.5067 13.0133 13.6667 12.6867L14.84 10.34C15.48 9.06668 16.52 9.06668 17.1533 10.34Z" stroke="#FFAD49" stroke-width="1.5" stroke-linecap="round" stroke-linejoin="round"/>
<path d="M31.104 15.984C30.5067 15.7493 30.048 15.408 29.728 14.96C29.408 14.512 29.248 13.968 29.248 13.328C29.248 12.752 29.392 12.2347 29.68 11.776C29.968 11.3067 30.3947 10.9387 30.96 10.672C31.536 10.3947 32.2293 10.256 33.04 10.256C33.8507 10.256 34.5387 10.3947 35.104 10.672C35.68 10.9387 36.112 11.3067 36.4 11.776C36.6987 12.2347 36.848 12.752 36.848 13.328C36.848 13.9467 36.6827 14.4907 36.352 14.96C36.0213 15.4187 35.568 15.76 34.992 15.984C35.6533 16.1867 36.176 16.544 36.56 17.056C36.9547 17.5573 37.152 18.1653 37.152 18.88C37.152 19.5733 36.9813 20.1813 36.64 20.704C36.2987 21.216 35.8133 21.616 35.184 21.904C34.5653 22.1813 33.8507 22.32 33.04 22.32C32.2293 22.32 31.5147 22.1813 30.896 21.904C30.288 21.616 29.8133 21.216 29.472 20.704C29.1307 20.1813 28.96 19.5733 28.96 18.88C28.96 18.1653 29.152 17.552 29.536 17.04C29.92 16.528 30.4427 16.176 31.104 15.984ZM35.44 13.504C35.44 12.8533 35.2267 12.352 34.8 12C34.3733 11.648 33.7867 11.472 33.04 11.472C32.304 11.472 31.7227 11.648 31.296 12C30.8693 12.352 30.656 12.8587 30.656 13.52C30.656 14.1173 30.8747 14.5973 31.312 14.96C31.76 15.3227 32.336 15.504 33.04 15.504C33.7547 15.504 34.3307 15.3227 34.768 14.96C35.216 14.5867 35.44 14.1013 35.44 13.504ZM33.04 16.624C32.2507 16.624 31.6053 16.8107 31.104 17.184C30.6027 17.5467 30.352 18.096 30.352 18.832C30.352 19.5147 30.592 20.064 31.072 20.48C31.5627 20.896 32.2187 21.104 33.04 21.104C33.8613 21.104 34.512 20.896 34.992 20.48C35.472 20.064 35.712 19.5147 35.712 18.832C35.712 18.1173 35.4667 17.5733 34.976 17.2C34.4853 16.816 33.84 16.624 33.04 16.624ZM38.7018 11.76V10.432H41.7098V22H40.2378V11.76H38.7018ZM44.0348 20.832C45.3894 19.744 46.4508 18.8533 47.2188 18.16C47.9868 17.456 48.6321 16.7253 49.1548 15.968C49.6881 15.2 49.9548 14.448 49.9548 13.712C49.9548 13.0187 49.7841 12.4747 49.4428 12.08C49.1121 11.6747 48.5734 11.472 47.8268 11.472C47.1014 11.472 46.5361 11.7013 46.1308 12.16C45.7361 12.608 45.5228 13.2107 45.4908 13.968H44.0828C44.1254 12.7733 44.4881 11.8507 45.1708 11.2C45.8534 10.5493 46.7334 10.224 47.8108 10.224C48.9094 10.224 49.7788 10.528 50.4188 11.136C51.0694 11.744 51.3948 12.5813 51.3948 13.648C51.3948 14.5333 51.1281 15.3973 50.5948 16.24C50.0721 17.072 49.4748 17.808 48.8028 18.448C48.1308 19.0773 47.2721 19.8133 46.2268 20.656H51.7308V21.872H44.0348V20.832ZM60.7899 11.696H55.1739V15.344C55.4192 15.0027 55.7819 14.7253 56.2619 14.512C56.7419 14.288 57.2592 14.176 57.8139 14.176C58.6992 14.176 59.4192 14.3627 59.9739 14.736C60.5285 15.0987 60.9232 15.5733 61.1579 16.16C61.4032 16.736 61.5259 17.3493 61.5259 18C61.5259 18.768 61.3819 19.456 61.0939 20.064C60.8059 20.672 60.3632 21.152 59.7659 21.504C59.1792 21.856 58.4485 22.032 57.5739 22.032C56.4539 22.032 55.5472 21.744 54.8539 21.168C54.1605 20.592 53.7392 19.824 53.5899 18.864H55.0139C55.1525 19.472 55.4459 19.9467 55.8939 20.288C56.3419 20.6293 56.9072 20.8 57.5899 20.8C58.4325 20.8 59.0672 20.5493 59.4939 20.048C59.9205 19.536 60.1339 18.864 60.1339 18.032C60.1339 17.2 59.9205 16.56 59.4939 16.112C59.0672 15.6533 58.4379 15.424 57.6059 15.424C57.0405 15.424 56.5445 15.5627 56.1179 15.84C55.7019 16.1067 55.3979 16.4747 55.2059 16.944H53.8299V10.416H60.7899V11.696Z" fill="#FFAD49"/>
</g>
<defs>
<filter id="filter0_b_1_947" x="-8" y="-8" width="87" height="48" filterUnits="userSpaceOnUse" color-interpolation-filters="sRGB">
<feFlood flood-opacity="0" result="BackgroundImageFix"/>
<feGaussianBlur in="BackgroundImageFix" stdDeviation="4"/>
<feComposite in2="SourceAlpha" operator="in" result="effect1_backgroundBlur_1_947"/>
<feBlend mode="normal" in="SourceGraphic" in2="effect1_backgroundBlur_1_947" result="shape"/>
</filter>
</defs>
</svg>
