<svg width="60" height="32" viewBox="0 0 60 32" fill="none" xmlns="http://www.w3.org/2000/svg">
<g filter="url(#filter0_b_869_135)">
<rect width="60" height="32" rx="8" fill="black" fill-opacity="0.65"/>
<path d="M17.1533 10.34L18.3267 12.6867C18.4867 13.0133 18.9133 13.3267 19.2733 13.3867L21.4 13.74C22.76 13.9667 23.08 14.9533 22.1 15.9267L20.4467 17.58C20.1667 17.86 20.0133 18.4 20.1 18.7867L20.5733 20.8333C20.9467 22.4533 20.0867 23.08 18.6533 22.2333L16.66 21.0533C16.3 20.84 15.7067 20.84 15.34 21.0533L13.3467 22.2333C11.92 23.08 11.0533 22.4467 11.4267 20.8333L11.9 18.7867C11.9867 18.4 11.8333 17.86 11.5533 17.58L9.9 15.9267C8.92667 14.9533 9.24 13.9667 10.6 13.74L12.7267 13.3867C13.08 13.3267 13.5067 13.0133 13.6667 12.6867L14.84 10.34C15.48 9.06668 16.52 9.06668 17.1533 10.34Z" stroke="#FFAD49" stroke-width="1.5" stroke-linecap="round" stroke-linejoin="round"/>
<path d="M28.608 11.76V10.432H31.616V22H30.144V11.76H28.608ZM33.941 20.832C35.2957 19.744 36.357 18.8533 37.125 18.16C37.893 17.456 38.5383 16.7253 39.061 15.968C39.5943 15.2 39.861 14.448 39.861 13.712C39.861 13.0187 39.6903 12.4747 39.349 12.08C39.0183 11.6747 38.4797 11.472 37.733 11.472C37.0077 11.472 36.4423 11.7013 36.037 12.16C35.6423 12.608 35.429 13.2107 35.397 13.968H33.989C34.0317 12.7733 34.3943 11.8507 35.077 11.2C35.7597 10.5493 36.6397 10.224 37.717 10.224C38.8157 10.224 39.685 10.528 40.325 11.136C40.9757 11.744 41.301 12.5813 41.301 13.648C41.301 14.5333 41.0343 15.3973 40.501 16.24C39.9783 17.072 39.381 17.808 38.709 18.448C38.037 19.0773 37.1783 19.8133 36.133 20.656H41.637V21.872H33.941V20.832ZM43.2881 13.344C43.3628 12.3627 43.7415 11.5947 44.4241 11.04C45.1068 10.4853 45.9921 10.208 47.0801 10.208C47.8055 10.208 48.4295 10.3413 48.9521 10.608C49.4855 10.864 49.8855 11.216 50.1521 11.664C50.4295 12.112 50.5681 12.6187 50.5681 13.184C50.5681 13.8453 50.3761 14.416 49.9921 14.896C49.6188 15.376 49.1281 15.6853 48.5201 15.824V15.904C49.2135 16.0747 49.7628 16.4107 50.1681 16.912C50.5735 17.4133 50.7761 18.0693 50.7761 18.88C50.7761 19.488 50.6375 20.0373 50.3601 20.528C50.0828 21.008 49.6668 21.3867 49.1121 21.664C48.5575 21.9413 47.8908 22.08 47.1121 22.08C45.9815 22.08 45.0535 21.7867 44.3281 21.2C43.6028 20.6027 43.1975 19.76 43.1121 18.672H44.5201C44.5948 19.312 44.8561 19.8347 45.3041 20.24C45.7521 20.6453 46.3495 20.848 47.0961 20.848C47.8428 20.848 48.4081 20.656 48.7921 20.272C49.1868 19.8773 49.3841 19.3707 49.3841 18.752C49.3841 17.952 49.1175 17.376 48.5841 17.024C48.0508 16.672 47.2455 16.496 46.1681 16.496H45.8001V15.28H46.1841C47.1655 15.2693 47.9068 15.1093 48.4081 14.8C48.9095 14.48 49.1601 13.9893 49.1601 13.328C49.1601 12.7627 48.9735 12.3093 48.6001 11.968C48.2375 11.6267 47.7148 11.456 47.0321 11.456C46.3708 11.456 45.8375 11.6267 45.4321 11.968C45.0268 12.3093 44.7868 12.768 44.7121 13.344H43.2881Z" fill="#FFAD49"/>
</g>
<defs>
<filter id="filter0_b_869_135" x="-8" y="-8" width="76" height="48" filterUnits="userSpaceOnUse" color-interpolation-filters="sRGB">
<feFlood flood-opacity="0" result="BackgroundImageFix"/>
<feGaussianBlur in="BackgroundImageFix" stdDeviation="4"/>
<feComposite in2="SourceAlpha" operator="in" result="effect1_backgroundBlur_869_135"/>
<feBlend mode="normal" in="SourceGraphic" in2="effect1_backgroundBlur_869_135" result="shape"/>
</filter>
</defs>
</svg>
