<svg width="65" height="32" viewBox="0 0 65 32" fill="none" xmlns="http://www.w3.org/2000/svg">
<g filter="url(#filter0_b_869_160)">
<rect width="65" height="32" rx="8" fill="black" fill-opacity="0.65"/>
<path d="M17.1533 10.34L18.3267 12.6867C18.4867 13.0133 18.9133 13.3267 19.2733 13.3867L21.4 13.74C22.76 13.9667 23.08 14.9533 22.1 15.9267L20.4467 17.58C20.1667 17.86 20.0133 18.4 20.1 18.7867L20.5733 20.8333C20.9467 22.4533 20.0867 23.08 18.6533 22.2333L16.66 21.0533C16.3 20.84 15.7067 20.84 15.34 21.0533L13.3467 22.2333C11.92 23.08 11.0533 22.4467 11.4267 20.8333L11.9 18.7867C11.9867 18.4 11.8333 17.86 11.5533 17.58L9.9 15.9267C8.92667 14.9533 9.24 13.9667 10.6 13.74L12.7267 13.3867C13.08 13.3267 13.5067 13.0133 13.6667 12.6867L14.84 10.34C15.48 9.06667 16.52 9.06667 17.1533 10.34Z" stroke="#FFAD49" stroke-width="1.5" stroke-linecap="round" stroke-linejoin="round"/>
<path d="M28.816 20.832C30.1707 19.744 31.232 18.8533 32 18.16C32.768 17.456 33.4133 16.7253 33.936 15.968C34.4693 15.2 34.736 14.448 34.736 13.712C34.736 13.0187 34.5653 12.4747 34.224 12.08C33.8933 11.6747 33.3547 11.472 32.608 11.472C31.8827 11.472 31.3173 11.7013 30.912 12.16C30.5173 12.608 30.304 13.2107 30.272 13.968H28.864C28.9067 12.7733 29.2693 11.8507 29.952 11.2C30.6347 10.5493 31.5147 10.224 32.592 10.224C33.6907 10.224 34.56 10.528 35.2 11.136C35.8507 11.744 36.176 12.5813 36.176 13.648C36.176 14.5333 35.9093 15.3973 35.376 16.24C34.8533 17.072 34.256 17.808 33.584 18.448C32.912 19.0773 32.0533 19.8133 31.008 20.656H36.512V21.872H28.816V20.832ZM38.1631 13.344C38.2378 12.3627 38.6165 11.5947 39.2991 11.04C39.9818 10.4853 40.8671 10.208 41.9551 10.208C42.6805 10.208 43.3045 10.3413 43.8271 10.608C44.3605 10.864 44.7605 11.216 45.0271 11.664C45.3045 12.112 45.4431 12.6187 45.4431 13.184C45.4431 13.8453 45.2511 14.416 44.8671 14.896C44.4938 15.376 44.0031 15.6853 43.3951 15.824V15.904C44.0885 16.0747 44.6378 16.4107 45.0431 16.912C45.4485 17.4133 45.6511 18.0693 45.6511 18.88C45.6511 19.488 45.5125 20.0373 45.2351 20.528C44.9578 21.008 44.5418 21.3867 43.9871 21.664C43.4325 21.9413 42.7658 22.08 41.9871 22.08C40.8565 22.08 39.9285 21.7867 39.2031 21.2C38.4778 20.6027 38.0725 19.76 37.9871 18.672H39.3951C39.4698 19.312 39.7311 19.8347 40.1791 20.24C40.6271 20.6453 41.2245 20.848 41.9711 20.848C42.7178 20.848 43.2831 20.656 43.6671 20.272C44.0618 19.8773 44.2591 19.3707 44.2591 18.752C44.2591 17.952 43.9925 17.376 43.4591 17.024C42.9258 16.672 42.1205 16.496 41.0431 16.496H40.6751V15.28H41.0591C42.0405 15.2693 42.7818 15.1093 43.2831 14.8C43.7845 14.48 44.0351 13.9893 44.0351 13.328C44.0351 12.7627 43.8485 12.3093 43.4751 11.968C43.1125 11.6267 42.5898 11.456 41.9071 11.456C41.2458 11.456 40.7125 11.6267 40.3071 11.968C39.9018 12.3093 39.6618 12.768 39.5871 13.344H38.1631ZM54.993 11.696H49.377V15.344C49.6223 15.0027 49.985 14.7253 50.465 14.512C50.945 14.288 51.4623 14.176 52.017 14.176C52.9023 14.176 53.6223 14.3627 54.177 14.736C54.7317 15.0987 55.1263 15.5733 55.361 16.16C55.6063 16.736 55.729 17.3493 55.729 18C55.729 18.768 55.585 19.456 55.297 20.064C55.009 20.672 54.5663 21.152 53.969 21.504C53.3823 21.856 52.6517 22.032 51.777 22.032C50.657 22.032 49.7503 21.744 49.057 21.168C48.3637 20.592 47.9423 19.824 47.793 18.864H49.217C49.3557 19.472 49.649 19.9467 50.097 20.288C50.545 20.6293 51.1103 20.8 51.793 20.8C52.6357 20.8 53.2703 20.5493 53.697 20.048C54.1237 19.536 54.337 18.864 54.337 18.032C54.337 17.2 54.1237 16.56 53.697 16.112C53.2703 15.6533 52.641 15.424 51.809 15.424C51.2437 15.424 50.7477 15.5627 50.321 15.84C49.905 16.1067 49.601 16.4747 49.409 16.944H48.033V10.416H54.993V11.696Z" fill="#FFAD49"/>
</g>
<defs>
<filter id="filter0_b_869_160" x="-8" y="-8" width="81" height="48" filterUnits="userSpaceOnUse" color-interpolation-filters="sRGB">
<feFlood flood-opacity="0" result="BackgroundImageFix"/>
<feGaussianBlur in="BackgroundImageFix" stdDeviation="4"/>
<feComposite in2="SourceAlpha" operator="in" result="effect1_backgroundBlur_869_160"/>
<feBlend mode="normal" in="SourceGraphic" in2="effect1_backgroundBlur_869_160" result="shape"/>
</filter>
</defs>
</svg>
