<svg width="67" height="32" viewBox="0 0 67 32" fill="none" xmlns="http://www.w3.org/2000/svg">
<g filter="url(#filter0_b_869_225)">
<rect width="67" height="32" rx="8" fill="black" fill-opacity="0.65"/>
<path d="M17.1533 10.34L18.3267 12.6867C18.4867 13.0133 18.9133 13.3267 19.2733 13.3867L21.4 13.74C22.76 13.9667 23.08 14.9533 22.1 15.9267L20.4467 17.58C20.1667 17.86 20.0133 18.4 20.1 18.7867L20.5733 20.8333C20.9467 22.4533 20.0867 23.08 18.6533 22.2333L16.66 21.0533C16.3 20.84 15.7067 20.84 15.34 21.0533L13.3467 22.2333C11.92 23.08 11.0533 22.4467 11.4267 20.8333L11.9 18.7867C11.9867 18.4 11.8333 17.86 11.5533 17.58L9.9 15.9267C8.92667 14.9533 9.24 13.9667 10.6 13.74L12.7267 13.3867C13.08 13.3267 13.5067 13.0133 13.6667 12.6867L14.84 10.34C15.48 9.06668 16.52 9.06668 17.1533 10.34Z" stroke="#FFAD49" stroke-width="1.5" stroke-linecap="round" stroke-linejoin="round"/>
<path d="M28.64 19.424V18.32L34.256 10.544H36V18.16H37.6V19.424H36V22H34.56V19.424H28.64ZM34.624 12.064L30.32 18.16H34.624V12.064ZM46.4305 11.696H40.8145V15.344C41.0598 15.0027 41.4225 14.7253 41.9025 14.512C42.3825 14.288 42.8998 14.176 43.4545 14.176C44.3398 14.176 45.0598 14.3627 45.6145 14.736C46.1692 15.0987 46.5638 15.5733 46.7985 16.16C47.0438 16.736 47.1665 17.3493 47.1665 18C47.1665 18.768 47.0225 19.456 46.7345 20.064C46.4465 20.672 46.0038 21.152 45.4065 21.504C44.8198 21.856 44.0892 22.032 43.2145 22.032C42.0945 22.032 41.1878 21.744 40.4945 21.168C39.8012 20.592 39.3798 19.824 39.2305 18.864H40.6545C40.7932 19.472 41.0865 19.9467 41.5345 20.288C41.9825 20.6293 42.5478 20.8 43.2305 20.8C44.0732 20.8 44.7078 20.5493 45.1345 20.048C45.5612 19.536 45.7745 18.864 45.7745 18.032C45.7745 17.2 45.5612 16.56 45.1345 16.112C44.7078 15.6533 44.0785 15.424 43.2465 15.424C42.6812 15.424 42.1852 15.5627 41.7585 15.84C41.3425 16.1067 41.0385 16.4747 40.8465 16.944H39.4705V10.416H46.4305V11.696ZM55.5494 13.184C55.3147 12 54.584 11.408 53.3574 11.408C52.408 11.408 51.6987 11.776 51.2294 12.512C50.76 13.2373 50.5307 14.4373 50.5414 16.112C50.7867 15.5573 51.192 15.1253 51.7574 14.816C52.3334 14.496 52.9734 14.336 53.6774 14.336C54.776 14.336 55.6507 14.6773 56.3014 15.36C56.9627 16.0427 57.2934 16.9867 57.2934 18.192C57.2934 18.9173 57.1494 19.568 56.8614 20.144C56.584 20.72 56.1574 21.1787 55.5814 21.52C55.016 21.8613 54.328 22.032 53.5174 22.032C52.4187 22.032 51.56 21.7867 50.9414 21.296C50.3227 20.8053 49.8907 20.128 49.6454 19.264C49.4 18.4 49.2774 17.3333 49.2774 16.064C49.2774 12.1493 50.6427 10.192 53.3734 10.192C54.4187 10.192 55.24 10.4747 55.8374 11.04C56.4347 11.6053 56.7867 12.32 56.8934 13.184H55.5494ZM53.3734 15.568C52.9147 15.568 52.4827 15.664 52.0774 15.856C51.672 16.0373 51.3414 16.32 51.0854 16.704C50.84 17.0773 50.7174 17.536 50.7174 18.08C50.7174 18.8907 50.952 19.552 51.4214 20.064C51.8907 20.5653 52.5627 20.816 53.4374 20.816C54.184 20.816 54.776 20.5867 55.2134 20.128C55.6614 19.6587 55.8854 19.0293 55.8854 18.24C55.8854 17.408 55.672 16.7573 55.2454 16.288C54.8187 15.808 54.1947 15.568 53.3734 15.568Z" fill="#FFAD49"/>
</g>
<defs>
<filter id="filter0_b_869_225" x="-8" y="-8" width="83" height="48" filterUnits="userSpaceOnUse" color-interpolation-filters="sRGB">
<feFlood flood-opacity="0" result="BackgroundImageFix"/>
<feGaussianBlur in="BackgroundImageFix" stdDeviation="4"/>
<feComposite in2="SourceAlpha" operator="in" result="effect1_backgroundBlur_869_225"/>
<feBlend mode="normal" in="SourceGraphic" in2="effect1_backgroundBlur_869_225" result="shape"/>
</filter>
</defs>
</svg>
